<?xml version="1.0" encoding="iso-8859-1"?>
<!-- Uploaded to: SVG Repo, www.svgrepo.com, Generator: SVG Repo Mixer Tools -->
<svg height="800px" width="800px" version="1.1" id="Layer_1" xmlns="http://www.w3.org/2000/svg" xmlns:xlink="http://www.w3.org/1999/xlink" 
	 viewBox="0 0 512 512" xml:space="preserve">
<g>
	<circle style="fill:#00BCD4;" cx="397.492" cy="419.165" r="81.582"/>
	<circle style="fill:#00BCD4;" cx="114.508" cy="256" r="81.582"/>
	<circle style="fill:#00BCD4;" cx="397.492" cy="92.835" r="81.582"/>
</g>
<g>
	<path style="fill:#231F20;" d="M397.492,326.33c-30.281,0-57.217,14.578-74.174,37.079l-123.363-71.13
		c4.752-11.15,7.387-23.412,7.387-36.279c0-12.866-2.635-25.127-7.387-36.279l123.363-71.13
		c16.957,22.501,43.894,37.079,74.174,37.079c51.189,0,92.835-41.645,92.835-92.835S448.681,0,397.492,0
		s-92.835,41.645-92.835,92.835c0,12.866,2.635,25.127,7.387,36.279l-123.363,71.13c-16.957-22.501-43.894-37.079-74.174-37.079
		c-51.189,0-92.835,41.645-92.835,92.835s41.646,92.835,92.835,92.835c30.281,0,57.217-14.578,74.174-37.079l123.363,71.13
		c-4.752,11.15-7.387,23.412-7.387,36.279c0,51.19,41.646,92.835,92.835,92.835s92.835-41.645,92.835-92.835
		S448.681,326.33,397.492,326.33z M397.492,22.505c38.78,0,70.33,31.55,70.33,70.33s-31.549,70.33-70.33,70.33
		s-70.33-31.55-70.33-70.33S358.712,22.505,397.492,22.505z M114.508,326.33c-38.78,0-70.33-31.55-70.33-70.33
		s31.549-70.33,70.33-70.33s70.33,31.55,70.33,70.33S153.288,326.33,114.508,326.33z M397.492,489.495
		c-38.78,0-70.33-31.55-70.33-70.33s31.549-70.33,70.33-70.33s70.33,31.55,70.33,70.33S436.272,489.495,397.492,489.495z"/>
	<path style="fill:#231F20;" d="M397.492,140.659c23.308,0,43.618-17.352,47.241-40.364c0.967-6.14-3.225-11.9-9.365-12.866
		c-6.141-0.964-11.899,3.225-12.866,9.366c-1.917,12.177-12.669,21.359-25.01,21.359c-6.214,0-11.253,5.038-11.253,11.253
		C386.239,135.621,391.278,140.659,397.492,140.659z"/>
	<path style="fill:#231F20;" d="M412.092,72.165c0.491,0.348,0.976,0.719,1.445,1.105c2.094,1.724,4.627,2.565,7.144,2.565
		c3.248,0,6.47-1.399,8.695-4.103c3.95-4.798,3.261-11.89-1.537-15.839c-0.884-0.728-1.805-1.431-2.736-2.091
		c-5.072-3.593-12.094-2.395-15.686,2.675C405.824,61.549,407.021,68.572,412.092,72.165z"/>
	<path style="fill:#231F20;" d="M435.369,413.759c-6.141-0.967-11.899,3.226-12.866,9.366c-1.917,12.177-12.669,21.359-25.01,21.359
		c-6.214,0-11.253,5.038-11.253,11.253s5.039,11.253,11.253,11.253c23.308,0,43.618-17.352,47.241-40.364
		C445.701,420.487,441.508,414.727,435.369,413.759z"/>
	<path style="fill:#231F20;" d="M412.092,398.495c0.491,0.348,0.976,0.719,1.445,1.105c2.094,1.724,4.627,2.565,7.144,2.565
		c3.248,0,6.47-1.399,8.695-4.103c3.95-4.798,3.261-11.89-1.537-15.839c-0.884-0.728-1.805-1.431-2.736-2.091
		c-5.072-3.593-12.094-2.395-15.686,2.675C405.824,387.879,407.021,394.902,412.092,398.495z"/>
	<path style="fill:#231F20;" d="M152.385,250.594c-6.139-0.965-11.9,3.226-12.866,9.366c-1.917,12.177-12.668,21.359-25.01,21.359
		c-6.214,0-11.253,5.038-11.253,11.253c0,6.215,5.039,11.253,11.253,11.253c23.31,0,43.62-17.353,47.241-40.364
		C162.717,257.321,158.523,251.561,152.385,250.594z"/>
	<path style="fill:#231F20;" d="M129.102,235.325c0.498,0.353,0.987,0.727,1.452,1.11c2.094,1.724,4.627,2.565,7.144,2.565
		c3.248,0,6.47-1.399,8.695-4.103c3.95-4.798,3.261-11.89-1.537-15.839c-0.875-0.721-1.794-1.423-2.729-2.086
		c-5.066-3.598-12.091-2.402-15.689,2.665C122.841,224.704,124.035,231.729,129.102,235.325z"/>
</g>
</svg>